<svg width="274" height="117" viewBox="0 0 274 117" fill="none" xmlns="http://www.w3.org/2000/svg">
<g clip-path="url(#clip0_410_229)">
<path d="M54.8699 82.4958H42.6681V16.6245L52.3723 27.1075C53.9798 28.8397 54.8709 31.1039 54.8699 33.4531V82.4958Z" fill="#45B8CF"/>
<path d="M91.2529 60.8527L103.55 62.1701C102.406 68.3809 99.5781 73.3526 95.0659 77.0853C90.5538 80.818 85.0567 82.6843 78.5745 82.6843C71.5839 82.6843 65.9278 80.3632 61.6064 75.7208C57.2849 71.0785 55.1241 65.401 55.1241 58.6884C55.1241 51.9758 57.2849 46.2983 61.6064 41.6559C65.9278 37.0136 71.5839 34.6924 78.5745 34.6924C84.3534 34.6924 89.1197 35.9785 92.8734 38.5506C96.4781 40.9528 99.3203 44.3132 101.072 48.2431L77.5259 65.6519L71.6156 58.0297L83.7221 48.8077C82.5125 47.4275 80.5106 46.7374 77.7165 46.7374C74.7275 46.7374 72.249 47.898 70.2811 50.2192C68.3131 52.5404 67.3281 55.3634 67.3259 58.6884C67.3259 61.6996 68.4222 64.4443 70.6147 66.9223C72.8072 69.4003 75.6193 70.6393 79.0511 70.6393C82.1609 70.6393 84.8459 69.761 87.1062 68.0045C89.3665 66.2479 90.7487 63.864 91.2529 60.8527Z" fill="#45B8CF"/>
<path d="M127.572 35.5049H141.299L129.383 73.3338C128.492 76.0941 127.316 78.2899 125.856 79.921C124.397 81.5521 122.268 82.3676 119.469 82.3676C116.671 82.3676 114.542 81.5521 113.083 79.921C111.623 78.2899 110.447 76.0941 109.556 73.3338L98.307 35.5049H111.843L119.565 65.8057H119.755L127.572 35.5049Z" fill="#45B8CF"/>
<path d="M172.28 60.8527L184.577 62.1701C183.434 68.3809 180.606 73.3526 176.093 77.0853C171.581 80.818 166.084 82.6843 159.602 82.6843C152.611 82.6843 146.955 80.3632 142.634 75.7208C138.312 71.0785 136.152 65.401 136.152 58.6884C136.152 51.9758 138.312 46.2983 142.634 41.6559C146.955 37.0136 152.611 34.6924 159.602 34.6924C165.385 34.6924 170.151 35.9785 173.901 38.5506C177.506 40.9519 180.349 44.3125 182.099 48.2431L158.553 65.6519L152.64 58.0297L164.746 48.8077C163.539 47.4275 161.537 46.7374 158.741 46.7374C155.754 46.7374 153.275 47.898 151.305 50.2192C149.335 52.5404 148.35 55.3634 148.35 58.6884C148.35 61.6996 149.446 64.4443 151.639 66.9223C153.831 69.4003 156.644 70.6393 160.075 70.6393C163.189 70.6393 165.874 69.761 168.13 68.0045C170.387 66.2479 171.77 63.864 172.28 60.8527Z" fill="#45B8CF"/>
<path d="M197.03 82.1824H184.828V31.681C184.829 30.3933 185.098 29.1195 185.618 27.9385C186.138 26.7574 186.898 25.6942 187.85 24.8147L197.03 16.311V82.1824Z" fill="#45B8CF"/>
<path d="M11.8395 117L1.64597 93.1609C1.64597 93.1609 -1.84933 84.378 1.35046 76.4045C4.28016 70.3913 38.1878 0 38.1878 0L38.21 76.646C38.21 76.646 38.1878 86.8874 33.4215 92.8472C30.2439 97.5523 11.8395 117 11.8395 117Z" fill="url(#paint0_linear_410_229)"/>
<path d="M201.364 35.3981H213.566V62.8759C213.566 65.2598 214.17 67.0791 215.377 68.3338C216.585 69.5885 218.301 70.2158 220.525 70.2158C222.747 70.2158 224.463 69.5885 225.673 68.3338C226.882 67.0791 227.486 65.2598 227.484 62.8759V32.7005C227.483 30.4252 228.317 28.2266 229.832 26.5118L239.682 15.3701V67.0164C239.682 71.9097 237.951 75.6737 234.487 78.3086C231.024 80.9434 226.369 82.2609 220.522 82.2609C214.671 82.2609 210.011 80.9434 206.541 78.3086C203.071 75.6737 201.339 71.9097 201.345 67.0164L201.364 35.3981Z" fill="#CAA5F2"/>
<path d="M240.639 114.804L230.89 104.139C229.31 102.41 228.436 100.163 228.437 97.8344V58.3586C228.437 51.5833 230.582 45.8745 234.872 41.2321C239.161 36.5897 244.643 34.2686 251.315 34.2686C257.921 34.2686 263.354 36.5897 267.616 41.2321C271.878 45.8745 274.007 51.5833 274.003 58.3586C274.003 64.7576 271.906 70.3409 267.712 75.1088C263.517 79.8766 258.243 82.2605 251.887 82.2605C250.172 82.2605 247.725 81.8214 244.547 80.9431V68.2393C246.611 69.1732 248.855 69.6547 251.125 69.6509C254.235 69.6509 256.793 68.5844 258.799 66.4514C260.805 64.3184 261.806 61.5895 261.801 58.2645C261.801 54.9396 260.816 52.2107 258.846 50.0777C257.932 49.0498 256.802 48.231 255.534 47.6784C254.266 47.1259 252.892 46.8528 251.506 46.8782C248.329 46.8782 245.723 47.9447 243.689 50.0777C241.656 52.2107 240.639 54.9396 240.639 58.2645V114.804Z" fill="#CAA5F2"/>
</g>
<defs>
<linearGradient id="paint0_linear_410_229" x1="19.1066" y1="114.359" x2="19.1066" y2="2.01378" gradientUnits="userSpaceOnUse">
<stop stop-color="#CAA5F2"/>
<stop offset="0.31" stop-color="#A0ABE7"/>
<stop offset="1" stop-color="#45B8CF"/>
</linearGradient>
<clipPath id="clip0_410_229">
<rect width="274" height="117" fill="white"/>
</clipPath>
</defs>
</svg>
