<svg width="140" height="60" viewBox="0 0 140 60" fill="none" xmlns="http://www.w3.org/2000/svg">
<g clip-path="url(#clip0_378_159)">
<path d="M28.0356 42.3056H21.8011V8.52547L26.7595 13.9013C27.5808 14.7897 28.0362 15.9508 28.0356 17.1555V42.3056Z" fill="#45B8CF"/>
<path d="M46.6255 31.2064L52.9087 31.8821C52.3242 35.067 50.8792 37.6166 48.5737 39.5308C46.2683 41.4451 43.4595 42.4022 40.1474 42.4022C36.5756 42.4022 33.6857 41.2118 31.4776 38.8311C29.2696 36.4504 28.1655 33.5389 28.1655 30.0965C28.1655 26.6542 29.2696 23.7426 31.4776 21.3619C33.6857 18.9812 36.5756 17.7909 40.1474 17.7909C43.1002 17.7909 45.5355 18.4504 47.4535 19.7695C49.2953 21.0014 50.7475 22.7246 51.6423 24.74L39.6117 33.6676L36.5918 29.7587L42.7776 25.0295C42.1596 24.3217 41.1367 23.9678 39.7091 23.9678C38.1818 23.9678 36.9155 24.563 35.9099 25.7534C34.9044 26.9437 34.4011 28.3914 34.4 30.0965C34.4 31.6408 34.9601 33.0483 36.0804 34.319C37.2007 35.5898 38.6375 36.2252 40.391 36.2252C41.9799 36.2252 43.3518 35.7748 44.5067 34.874C45.6616 33.9732 46.3679 32.7507 46.6255 31.2064Z" fill="#45B8CF"/>
<path d="M65.1829 18.2075H72.1967L66.1083 37.607C65.6526 39.0225 65.0519 40.1485 64.3062 40.985C63.5604 41.8215 62.4726 42.2397 61.0428 42.2397C59.613 42.2397 58.5252 41.8215 57.7794 40.985C57.0337 40.1485 56.433 39.0225 55.9773 37.607L50.2299 18.2075H57.1462L61.0915 33.7464H61.1889L65.1829 18.2075Z" fill="#45B8CF"/>
<path d="M88.0263 31.2064L94.3095 31.8821C93.7251 35.067 92.2801 37.6166 89.9746 39.5308C87.6692 41.4451 84.8604 42.4022 81.5483 42.4022C77.9765 42.4022 75.0865 41.2118 72.8785 38.8311C70.6704 36.4504 69.5664 33.5389 69.5664 30.0965C69.5664 26.6542 70.6704 23.7426 72.8785 21.3619C75.0865 18.9812 77.9765 17.7909 81.5483 17.7909C84.5032 17.7909 86.9386 18.4504 88.8544 19.7695C90.6966 21.0009 92.1489 22.7243 93.0432 24.74L81.0125 33.6676L77.9911 29.7587L84.1769 25.0295C83.5599 24.3217 82.5371 23.9678 81.1083 23.9678C79.5822 23.9678 78.3158 24.563 77.3092 25.7534C76.3026 26.9437 75.7993 28.3914 75.7993 30.0965C75.7993 31.6408 76.3594 33.0483 77.4797 34.319C78.5999 35.5898 80.0368 36.2252 81.7902 36.2252C83.3813 36.2252 84.7532 35.7748 85.906 34.874C87.0587 33.9732 87.7655 32.7507 88.0263 31.2064Z" fill="#45B8CF"/>
<path d="M100.672 42.1448H94.4379V16.2467C94.4384 15.5863 94.5757 14.9331 94.8412 14.3274C95.1068 13.7217 95.495 13.1765 95.9819 12.7255L100.672 8.36462V42.1448Z" fill="#45B8CF"/>
<path d="M6.04957 60L0.841177 47.7748C0.841177 47.7748 -0.944743 43.2708 0.690187 39.1818C2.18711 36.0981 19.5122 0 19.5122 0L19.5235 39.3056C19.5235 39.3056 19.5122 44.5576 17.0768 47.6139C15.4533 50.0268 6.04957 60 6.04957 60Z" fill="url(#paint0_linear_378_159)"/>
<path d="M102.887 18.1528H109.121V32.244C109.121 33.4665 109.43 34.3995 110.047 35.0429C110.664 35.6863 111.541 36.008 112.677 36.008C113.812 36.008 114.689 35.6863 115.307 35.0429C115.925 34.3995 116.234 33.4665 116.233 32.244V16.7694C116.232 15.6026 116.658 14.4751 117.432 13.5957L122.466 7.88203V34.3673C122.466 36.8767 121.581 38.807 119.811 40.1582C118.041 41.5094 115.663 42.185 112.675 42.185C109.686 42.185 107.305 41.5094 105.532 40.1582C103.759 38.807 102.874 36.8767 102.877 34.3673L102.887 18.1528Z" fill="#CAA5F2"/>
<path d="M122.954 58.874L117.973 53.4048C117.166 52.5179 116.719 51.3659 116.72 50.1716V29.9276C116.72 26.4531 117.816 23.5255 120.007 21.1448C122.199 18.7641 125 17.5737 128.409 17.5737C131.784 17.5737 134.561 18.7641 136.738 21.1448C138.916 23.5255 140.004 26.4531 140.002 29.9276C140.002 33.2091 138.93 36.0724 136.787 38.5174C134.644 40.9625 131.949 42.185 128.702 42.185C127.825 42.185 126.575 41.9598 124.951 41.5094V34.9946C126.006 35.4735 127.152 35.7205 128.312 35.7185C129.901 35.7185 131.208 35.1716 132.233 34.0777C133.258 32.9839 133.769 31.5845 133.767 29.8794C133.767 28.1743 133.264 26.7748 132.257 25.681C131.79 25.1538 131.212 24.734 130.565 24.4506C129.917 24.1672 129.215 24.0272 128.507 24.0402C126.883 24.0402 125.552 24.5871 124.513 25.681C123.474 26.7748 122.954 28.1743 122.954 29.8794V58.874Z" fill="#CAA5F2"/>
</g>
<defs>
<linearGradient id="paint0_linear_378_159" x1="9.76267" y1="58.6456" x2="9.76267" y2="1.03271" gradientUnits="userSpaceOnUse">
<stop stop-color="#CAA5F2"/>
<stop offset="0.31" stop-color="#A0ABE7"/>
<stop offset="1" stop-color="#45B8CF"/>
</linearGradient>
<clipPath id="clip0_378_159">
<rect width="140" height="60" fill="white"/>
</clipPath>
</defs>
</svg>
