<svg width="196" height="84" viewBox="0 0 196 84" fill="none" xmlns="http://www.w3.org/2000/svg">
<g clip-path="url(#clip0_378_159)">
<path d="M39.25 59.2279H30.5217V11.9356L37.4634 19.4619C38.6133 20.7055 39.2508 22.3311 39.25 24.0177V59.2279Z" fill="#45B8CF"/>
<path d="M65.2757 43.689L74.0722 44.6349C73.2539 49.0938 71.2309 52.6633 68.0033 55.3432C64.7756 58.0231 60.8433 59.363 56.2064 59.363C51.2059 59.363 47.1599 57.6965 44.0687 54.3636C40.9774 51.0306 39.4318 46.9544 39.4318 42.1351C39.4318 37.3158 40.9774 33.2397 44.0687 29.9067C47.1599 26.5737 51.2059 24.9072 56.2064 24.9072C60.3403 24.9072 63.7497 25.8306 66.4349 27.6772C69.0134 29.4019 71.0465 31.8145 72.2992 34.6359L55.4563 47.1346L51.2286 41.6622L59.8887 35.0413C59.0234 34.0504 57.5914 33.555 55.5927 33.555C53.4546 33.555 51.6817 34.3882 50.2739 36.0547C48.8662 37.7212 48.1616 39.748 48.1601 42.1351C48.1601 44.2971 48.9442 46.2676 50.5126 48.0467C52.081 49.8257 54.0926 50.7153 56.5474 50.7153C58.7719 50.7153 60.6926 50.0847 62.3094 48.8236C63.9263 47.5625 64.915 45.8509 65.2757 43.689Z" fill="#45B8CF"/>
<path d="M91.256 25.4905H101.075L92.5516 52.6498C91.9137 54.6315 91.0727 56.2079 90.0286 57.379C88.9846 58.55 87.4616 59.1356 85.4599 59.1356C83.4581 59.1356 81.9352 58.55 80.8912 57.379C79.8471 56.2079 79.0061 54.6315 78.3682 52.6498L70.3218 25.4905H80.0047L85.5281 47.2449H85.6645L91.256 25.4905Z" fill="#45B8CF"/>
<path d="M123.237 43.689L132.033 44.6349C131.215 49.0938 129.192 52.6633 125.965 55.3432C122.737 58.0231 118.805 59.363 114.168 59.363C109.167 59.363 105.121 57.6965 102.03 54.3636C98.9387 51.0306 97.3931 46.9544 97.3931 42.1351C97.3931 37.3158 98.9387 33.2397 102.03 29.9067C105.121 26.5737 109.167 24.9072 114.168 24.9072C118.305 24.9072 121.714 25.8306 124.396 27.6772C126.975 29.4013 129.009 31.814 130.261 34.6359L113.418 47.1346L109.188 41.6622L117.848 35.0413C116.984 34.0504 115.552 33.555 113.552 33.555C111.415 33.555 109.642 34.3882 108.233 36.0547C106.824 37.7212 106.119 39.748 106.119 42.1351C106.119 44.2971 106.903 46.2676 108.472 48.0467C110.04 49.8257 112.052 50.7153 114.506 50.7153C116.734 50.7153 118.655 50.0847 120.268 48.8236C121.882 47.5625 122.872 45.8509 123.237 43.689Z" fill="#45B8CF"/>
<path d="M140.941 59.0027H132.213V22.7453C132.214 21.8208 132.406 20.9063 132.778 20.0584C133.15 19.2104 133.693 18.4471 134.375 17.8157L140.941 11.7105V59.0027Z" fill="#45B8CF"/>
<path d="M8.46911 84L1.17736 66.8847C1.17736 66.8847 -1.32293 60.5791 0.965969 54.8545C3.06167 50.5374 27.3168 0 27.3168 0L27.3327 55.0279C27.3327 55.0279 27.3168 62.3807 23.9073 66.6595C21.6343 70.0375 8.46911 84 8.46911 84Z" fill="url(#paint0_linear_378_159)"/>
<path d="M144.042 25.4139H152.77V45.1416C152.77 46.8531 153.202 48.1592 154.066 49.06C154.929 49.9609 156.157 50.4113 157.748 50.4113C159.337 50.4113 160.565 49.9609 161.43 49.06C162.295 48.1592 162.727 46.8531 162.726 45.1416V23.4772C162.725 21.8436 163.322 20.2652 164.405 19.034L171.452 11.0349V48.1142C171.452 51.6273 170.213 54.3298 167.735 56.2215C165.258 58.1131 161.928 59.059 157.746 59.059C153.56 59.059 150.227 58.1131 147.744 56.2215C145.262 54.3298 144.024 51.6273 144.028 48.1142L144.042 25.4139Z" fill="#CAA5F2"/>
<path d="M172.136 82.4236L165.162 74.7668C164.032 73.525 163.407 71.9122 163.408 70.2402V41.8987C163.408 37.0343 164.942 32.9357 168.01 29.6027C171.079 26.2697 175 24.6032 179.773 24.6032C184.498 24.6032 188.385 26.2697 191.434 29.6027C194.482 32.9357 196.005 37.0343 196.002 41.8987C196.002 46.4928 194.502 50.5013 191.502 53.9244C188.501 57.3475 184.728 59.059 180.182 59.059C178.955 59.059 177.205 58.7437 174.932 58.1131V48.9925C176.408 49.6629 178.013 50.0087 179.637 50.0059C181.861 50.0059 183.691 49.2402 185.126 47.7088C186.561 46.1775 187.277 44.2182 187.274 41.8311C187.274 39.444 186.569 37.4847 185.16 35.9534C184.506 35.2154 183.697 34.6275 182.791 34.2308C181.884 33.8341 180.901 33.6381 179.91 33.6563C177.637 33.6563 175.773 34.422 174.318 35.9534C172.863 37.4847 172.136 39.444 172.136 41.8311V82.4236Z" fill="#CAA5F2"/>
</g>
<defs>
<linearGradient id="paint0_linear_378_159" x1="13.6674" y1="82.1038" x2="13.6674" y2="1.44579" gradientUnits="userSpaceOnUse">
<stop stop-color="#CAA5F2"/>
<stop offset="0.31" stop-color="#A0ABE7"/>
<stop offset="1" stop-color="#45B8CF"/>
</linearGradient>
<clipPath id="clip0_378_159">
<rect width="196" height="84" fill="white"/>
</clipPath>
</defs>
</svg>
