<svg width="39" height="60" viewBox="0 0 39 60" fill="none" xmlns="http://www.w3.org/2000/svg">
<g clip-path="url(#clip0_378_159)">
<path d="M1.88696 18.1528H8.12144V32.244C8.12144 33.4665 8.42992 34.3995 9.04687 35.0429C9.66383 35.6863 10.5406 36.008 11.6771 36.008C12.8125 36.008 13.6892 35.6863 14.3072 35.0429C14.9253 34.3995 15.2337 33.4665 15.2327 32.244V16.7694C15.2322 15.6026 15.6584 14.4751 16.4325 13.5957L21.4655 7.88203V34.3673C21.4655 36.8767 20.5807 38.807 18.811 40.1582C17.0413 41.5094 14.6628 42.185 11.6754 42.185C8.6859 42.185 6.30467 41.5094 4.53174 40.1582C2.75881 38.807 1.87396 36.8767 1.87721 34.3673L1.88696 18.1528Z" fill="#CAA5F2"/>
<path d="M21.9542 58.874L16.9731 53.4048C16.1659 52.5179 15.7193 51.3659 15.7197 50.1716V29.9276C15.7197 26.4531 16.8156 23.5255 19.0074 21.1448C21.1993 18.7641 23.9999 17.5737 27.4094 17.5737C30.7842 17.5737 33.5606 18.7641 35.7383 21.1448C37.916 23.5255 39.0038 26.4531 39.0017 29.9276C39.0017 33.2091 37.9301 36.0724 35.787 38.5174C33.6439 40.9625 30.9488 42.185 27.7016 42.185C26.8249 42.185 25.5748 41.9598 23.9512 41.5094V34.9946C25.0056 35.4735 26.1521 35.7205 27.312 35.7185C28.9009 35.7185 30.2079 35.1716 31.2329 34.0777C32.2579 32.9839 32.7693 31.5845 32.7672 29.8794C32.7672 28.1743 32.2639 26.7748 31.2572 25.681C30.7901 25.1538 30.2125 24.734 29.5648 24.4506C28.917 24.1672 28.2147 24.0272 27.5068 24.0402C25.8833 24.0402 24.5519 24.5871 23.5128 25.681C22.4738 26.7748 21.9542 28.1743 21.9542 29.8794V58.874Z" fill="#CAA5F2"/>
</g>
<defs>
<clipPath id="clip0_378_159">
<rect width="39" height="60" fill="white"/>
</clipPath>
</defs>
</svg>
